<?xml version="1.0" encoding="UTF-8" standalone="no"?>
<!-- Created with Inkscape (http://www.inkscape.org/) -->

<svg
   xmlns:dc="http://purl.org/dc/elements/1.1/"
   xmlns:cc="http://creativecommons.org/ns#"
   xmlns:rdf="http://www.w3.org/1999/02/22-rdf-syntax-ns#"
   xmlns:svg="http://www.w3.org/2000/svg"
   xmlns="http://www.w3.org/2000/svg"
   xmlns:sodipodi="http://sodipodi.sourceforge.net/DTD/sodipodi-0.dtd"
   xmlns:inkscape="http://www.inkscape.org/namespaces/inkscape"
   id="svg2"
   sodipodi:docname="juhele_caution-otters_crossing.svg"
   inkscape:export-filename="F:\_GRAFIKA\2018_04_Vydra\juhele_caution-otters_crossing.png"
   viewBox="0 0 744.09446 1052.3622"
   inkscape:export-xdpi="307.56125"
   version="1.1"
   inkscape:export-ydpi="307.56125"
   inkscape:version="0.91 r13725"
   width="210mm"
   height="297mm">
  <title
     id="title3349">Caution - otters crossing</title>
  <defs
     id="defs4" />
  <sodipodi:namedview
     id="base"
     fit-margin-left="0"
     inkscape:zoom="0.5"
     borderopacity="1.0"
     inkscape:current-layer="layer10"
     inkscape:cx="-1000.6131"
     inkscape:cy="225.41048"
     inkscape:window-maximized="1"
     showgrid="false"
     fit-margin-right="0"
     showguides="true"
     bordercolor="#666666"
     inkscape:window-x="-9"
     inkscape:guide-bbox="true"
     inkscape:window-y="-9"
     fit-margin-bottom="0"
     inkscape:window-width="2560"
     inkscape:pageopacity="0.0"
     inkscape:pageshadow="2"
     pagecolor="#ffffff"
     inkscape:document-units="px"
     inkscape:window-height="1369"
     fit-margin-top="0"
     units="mm" />
  <g
     id="layer10"
     inkscape:label="sign"
     inkscape:groupmode="layer"
     transform="translate(663.66,1600.2222)"
     sodipodi:insensitive="true"
     style="display:inline">
    <g
       id="g3393">
      <g
         transform="translate(-2.0732073,0)"
         id="g3348">
        <g
           transform="translate(-1323.4435,-1454.4638)"
           id="g986">
          <path
             inkscape:connector-curvature="0"
             sodipodi:nodetypes="ccccccc"
             d="m 739.08646,477.60001 c -24.41595,-2.00897 -41.04172,-30.37758 -30.34303,-52.57854 44.25094,-76.82686 246.21958,-423.7889195 294.74177,-508.881956 13.9348,-20.153614 46.8204,-20.358354 60.6912,0 44.4147,76.7372842 245.5158,423.405036 294.9593,507.973436 10.4799,22.14979 -5.7837,50.73593 -30.3519,52.56575 -88.6631,0.0896 -491.73542,0.38388 -589.70118,0.92131 z"
             style="fill:#ff0000;fill-rule:evenodd;stroke-width:3pt"
             id="path590" />
          <path
             inkscape:connector-curvature="0"
             sodipodi:nodetypes="cccc"
             d="M 775.2478,420.37654 1289.9263,418.87941 1032.8942,-25.011934 775.2478,420.37654 Z"
             style="fill:#ffffff;fill-rule:evenodd;stroke-width:3pt"
             id="path605" />
        </g>
        <path
           inkscape:connector-curvature="0"
           id="path3485"
           d="m -210.94696,-1046.9231 c -1.81022,-1.5232 -5.63434,-3.3594 -8.49851,-4.0805 -6.81174,-1.7153 -9.54321,-4.4215 -10.48729,-10.3893 -1.5171,-9.5911 -3.09557,-13.4032 -5.83436,-14.0904 -1.43583,-0.3593 -13.56385,-0.4764 -26.95159,-0.2572 -22.63362,0.3705 -24.56591,0.5644 -27.54255,2.7841 -1.76053,1.3127 -4.1455,3.9992 -5.29936,5.97 l -2.09865,3.5833 5.82337,2.42 c 6.11755,2.5426 6.85935,4.3743 2.25942,5.5793 -2.51122,0.6577 -2.25628,0.9455 2.91945,3.2949 5.62335,2.5525 5.64445,2.5816 2.51139,3.4765 -5.64079,1.6109 -64.55874,1.7419 -67.43128,0.1517 -3.51216,-1.9471 -4.39905,-6.4265 -2.18967,-11.0592 0.99849,-2.0938 1.36713,-4.0843 0.81923,-4.4226 -0.97948,-0.6058 -17.28405,2.0411 -47.93961,7.7816 -46.84852,8.7732 -73.57185,8.4502 -93.60288,-1.1312 -8.74281,-4.1817 -11.63505,-7.6213 -11.63505,-13.836 0,-11.156 17.11734,-19.5072 30.45398,-14.8581 6.2982,2.1959 4.0257,4.6205 -7.3783,7.873 -12.77758,3.6442 -13.31467,8.5529 -1.4109,12.8932 4.90771,1.789 9.16272,2.2464 21.43478,2.3032 17.61275,0.084 26.89317,-1.5684 48.77069,-8.6699 29.39917,-9.5436 38.04416,-14.444 70.18437,-39.7843 12.29055,-9.6907 28.7531,-17.4237 46.63823,-21.9075 11.4816,-2.8787 32.1437,-2.9046 45.77068,-0.058 7.52583,1.5721 13.54433,1.9984 24.00582,1.7013 l 13.96231,-0.3969 7.18474,-4.9886 c 25.11695,-17.4391 42.05276,-27.7316 48.82928,-29.6752 2.57767,-0.7392 7.43045,-0.1169 18.80132,2.4132 8.42928,1.8751 15.75858,3.6766 16.2866,4.0028 0.52819,0.3253 0.9603,1.7864 0.9603,3.2447 0,3.9443 -6.94044,9.4818 -24.00233,19.1503 -8.74961,4.9579 -11.74194,8.1419 -22.3452,23.7754 -7.57954,11.1752 -12.66145,17.2516 -20.05004,23.9743 -12.27206,11.1654 -15.23754,16.7192 -15.25376,28.5682 0,8.9519 0.60213,9.9345 6.92196,11.0713 4.12248,0.7418 8.46939,4.194 7.05814,5.6052 -0.41746,0.4175 -4.71746,0.7589 -9.55646,0.7589 -7.67283,0 -9.218,-0.3554 -12.08827,-2.7693 z"
           style="fill:#000000"
           sodipodi:nodetypes="ccscsccccccccccssscsccccccccscccssscccsscc" />
      </g>
      <rect
         ry="35.081718"
         y="-965.67609"
         x="-624.42877"
         height="296.84531"
         width="665.63208"
         id="rect3671"
         style="opacity:1;fill:#ffffff;fill-opacity:1;stroke:#000000;stroke-width:10.36789417;stroke-linecap:butt;stroke-linejoin:miter;stroke-miterlimit:4;stroke-dasharray:none;stroke-dashoffset:0;stroke-opacity:1" />
      <rect
         style="opacity:1;fill:#ff0000;fill-opacity:1;stroke:none;stroke-width:10;stroke-linecap:butt;stroke-linejoin:miter;stroke-miterlimit:4;stroke-dasharray:none;stroke-dashoffset:0;stroke-opacity:1"
         id="rect4473"
         width="589.63251"
         height="140.2355"
         x="-586.42902"
         y="-928.40417"
         ry="16.573288" />
      <g
         id="flowRoot4475"
         style="font-style:normal;font-variant:normal;font-weight:bold;font-stretch:normal;font-size:3px;line-height:125%;font-family:Arial;-inkscape-font-specification:'Arial Bold';text-align:start;letter-spacing:0px;word-spacing:0px;writing-mode:lr-tb;text-anchor:start;fill:#ffffff;fill-opacity:1;stroke:none;stroke-width:1px;stroke-linecap:butt;stroke-linejoin:miter;stroke-opacity:1"
         transform="matrix(1.3086842,0,0,1.3086842,-887.43725,-2171.5121)">
        <path
           id="path3350"
           style="font-size:90px;fill:#ffffff"
           d="m 299.49902,1008.3472 12.61231,3.999 q -2.90039,10.5469 -9.66797,15.6885 -6.72363,5.0976 -17.09473,5.0976 -12.83203,0 -21.09375,-8.7451 -8.26172,-8.7891 -8.26172,-23.9941 0,-16.08403 8.30567,-24.96099 8.30566,-8.9209 21.84082,-8.9209 11.82129,0 19.2041,6.98731 4.39453,4.13086 6.5918,11.86523 l -12.87598,3.07618 q -1.14258,-5.00977 -4.79004,-7.91016 -3.60351,-2.90039 -8.78906,-2.90039 -7.16309,0 -11.64551,5.1416 -4.43848,5.1416 -4.43848,16.65527 0,12.21685 4.39454,17.40235 4.39453,5.1855 11.42578,5.1855 5.18554,0 8.9209,-3.2959 3.73535,-3.2959 5.36132,-10.371 z"
           inkscape:connector-curvature="0" />
        <path
           id="path3352"
           style="font-size:90px;fill:#ffffff"
           d="m 381.41309,1032.0337 -14.15039,0 -5.625,-14.6338 -25.75196,0 -5.31738,14.6338 -13.79883,0 25.09277,-64.42385 13.75489,0 25.7959,64.42385 z m -23.9502,-25.4883 -8.87695,-23.90626 -8.70117,23.90626 17.57812,0 z"
           inkscape:connector-curvature="0" />
        <path
           id="path3354"
           style="font-size:90px;fill:#ffffff"
           d="m 388.44434,967.60985 13.00781,0 0,34.89255 q 0,8.3057 0.4834,10.7666 0.83496,3.9551 3.95507,6.3721 3.16407,2.373 8.61329,2.373 5.53711,0 8.34961,-2.2412 2.8125,-2.2851 3.38378,-5.581 0.57129,-3.2959 0.57129,-10.9424 l 0,-35.63965 13.00782,0 0,33.83785 q 0,11.6016 -1.05469,16.3916 -1.05469,4.7901 -3.91113,8.086 -2.8125,3.2959 -7.5586,5.2734 -4.74609,1.9336 -12.39258,1.9336 -9.22851,0 -14.01855,-2.1094 -4.74609,-2.1533 -7.51465,-5.5371 -2.76855,-3.4277 -3.64746,-7.1631 -1.27441,-5.5371 -1.27441,-16.3476 l 0,-34.36525 z"
           inkscape:connector-curvature="0" />
        <path
           id="path3356"
           style="font-size:90px;fill:#ffffff"
           d="m 468.07324,1032.0337 0,-53.52541 -19.11621,0 0,-10.89844 51.19629,0 0,10.89844 -19.07227,0 0,53.52541 -13.00781,0 z"
           inkscape:connector-curvature="0" />
        <path
           id="path3358"
           style="font-size:90px;fill:#ffffff"
           d="m 508.01953,1032.0337 0,-64.42385 13.00781,0 0,64.42385 -13.00781,0 z"
           inkscape:connector-curvature="0" />
        <path
           id="path3360"
           style="font-size:90px;fill:#ffffff"
           d="m 530.73926,1000.2173 q 0,-9.84378 2.94433,-16.52347 2.19727,-4.92187 5.97657,-8.83301 3.82324,-3.91113 8.34961,-5.80078 6.0205,-2.54883 13.88671,-2.54883 14.23829,0 22.76368,8.83301 8.56933,8.83301 8.56933,24.56543 0,15.60055 -8.48144,24.43355 -8.48145,8.7891 -22.67578,8.7891 -14.37012,0 -22.85157,-8.7451 -8.48144,-8.7891 -8.48144,-24.1699 z m 13.40332,-0.43948 q 0,10.94238 5.05371,16.61128 5.05371,5.625 12.83203,5.625 7.77832,0 12.74414,-5.581 5.00977,-5.625 5.00977,-16.83106 0,-11.07422 -4.87793,-16.52344 -4.83399,-5.44922 -12.87598,-5.44922 -8.04199,0 -12.96387,5.53711 -4.92187,5.49316 -4.92187,16.61133 z"
           inkscape:connector-curvature="0" />
        <path
           id="path3362"
           style="font-size:90px;fill:#ffffff"
           d="m 603.46875,1032.0337 0,-64.42385 12.65625,0 26.36719,43.02245 0,-43.02245 12.08496,0 0,64.42385 -13.05176,0 -25.97168,-42.01174 0,42.01174 -12.08496,0 z"
           inkscape:connector-curvature="0" />
      </g>
      <g
         id="flowRoot4483"
         style="font-style:normal;font-variant:normal;font-weight:bold;font-stretch:normal;font-size:3px;line-height:125%;font-family:Arial;-inkscape-font-specification:'Arial Bold';text-align:start;letter-spacing:0px;word-spacing:0px;writing-mode:lr-tb;text-anchor:start;fill:#000000;fill-opacity:1;stroke:none;stroke-width:1px;stroke-linecap:butt;stroke-linejoin:miter;stroke-opacity:1"
         transform="matrix(1.0309845,0,0,1.0309845,-848.12675,-1758.0783)">
        <path
           id="path3365"
           style="font-size:76.41262817px;fill:#000000"
           d="m 255.05113,991.64961 q 0,-8.35764 2.49983,-14.02889 1.86554,-4.17881 5.07428,-7.49948 3.24604,-3.32066 7.08906,-4.92503 5.11159,-2.16403 11.79023,-2.16403 12.08872,0 19.32702,7.49948 7.27562,7.49948 7.27562,20.85677 0,13.24537 -7.201,20.74487 -7.20099,7.4621 -19.2524,7.4621 -12.20065,0 -19.40164,-7.4248 -7.201,-7.4622 -7.201,-20.52099 z m 11.37982,-0.37311 q 0,9.2904 4.29074,14.1035 4.29075,4.7758 10.89477,4.7758 6.60402,0 10.82015,-4.7385 4.25344,-4.7758 4.25344,-14.29005 0,-9.40233 -4.14151,-14.02888 -4.10419,-4.62654 -10.93208,-4.62654 -6.82788,0 -11.0067,4.70116 -4.17881,4.66386 -4.17881,14.10351 z"
           inkscape:connector-curvature="0" />
        <path
           id="path3367"
           style="font-size:76.41262817px;fill:#000000"
           d="m 334.78443,979.03854 0,8.35763 -7.16368,0 0,15.96903 q 0,4.8504 0.18655,5.6713 0.22387,0.7835 0.93277,1.3058 0.74622,0.5224 1.79092,0.5224 1.45513,0 4.21613,-1.0074 l 0.89546,8.1338 q -3.65646,1.567 -8.28301,1.567 -2.83562,0 -5.11159,-0.9327 -2.27596,-0.9701 -3.35797,-2.4626 -1.04471,-1.5297 -1.45513,-4.1042 -0.33579,-1.8282 -0.33579,-7.3875 l 0,-17.27493 -4.8131,0 0,-8.35763 4.8131,0 0,-7.87259 10.52166,-6.11898 0,13.99157 7.16368,0 z"
           inkscape:connector-curvature="0" />
        <path
           id="path3369"
           style="font-size:76.41262817px;fill:#000000"
           d="m 360.30505,979.03854 0,8.35763 -7.16368,0 0,15.96903 q 0,4.8504 0.18655,5.6713 0.22387,0.7835 0.93277,1.3058 0.74622,0.5224 1.79092,0.5224 1.45513,0 4.21613,-1.0074 l 0.89546,8.1338 q -3.65646,1.567 -8.28301,1.567 -2.83562,0 -5.11158,-0.9327 -2.27597,-0.9701 -3.35798,-2.4626 -1.04471,-1.5297 -1.45512,-4.1042 -0.3358,-1.8282 -0.3358,-7.3875 l 0,-17.27493 -4.8131,0 0,-8.35763 4.8131,0 0,-7.87259 10.52166,-6.11898 0,13.99157 7.16368,0 z"
           inkscape:connector-curvature="0" />
        <path
           id="path3371"
           style="font-size:76.41262817px;fill:#000000"
           d="m 390.60146,1006.0516 10.44704,1.7536 q -2.01478,5.7459 -6.38015,8.7681 -4.32806,2.9848 -10.85746,2.9848 -10.33511,0 -15.29745,-6.7532 -3.91764,-5.4101 -3.91764,-13.65581 0,-9.85007 5.1489,-15.40939 5.14889,-5.59662 13.02148,-5.59662 8.84268,0 13.95426,5.8578 5.11159,5.82049 4.88773,17.87192 l -26.26685,0 q 0.11194,4.6638 2.53714,7.2756 2.42521,2.5744 6.04436,2.5744 2.46252,0 4.14151,-1.3431 1.67898,-1.3432 2.53713,-4.3281 z m 0.59698,-10.59629 q -0.11194,-4.55192 -2.35059,-6.90251 -2.23865,-2.38789 -5.44738,-2.38789 -3.4326,0 -5.67125,2.49983 -2.23865,2.49982 -2.20134,6.79057 l 15.67056,0 z"
           inkscape:connector-curvature="0" />
        <path
           id="path3373"
           style="font-size:76.41262817px;fill:#000000"
           d="m 420.22629,1018.6627 -10.48435,0 0,-39.62416 9.73813,0 0,5.63394 q 2.49983,-3.99227 4.4773,-5.26083 2.01479,-1.26857 4.55193,-1.26857 3.58184,0 6.9025,1.97747 l -3.24604,9.14116 q -2.64907,-1.7163 -4.92503,-1.7163 -2.20134,0 -3.73109,1.23126 -1.52974,1.19395 -2.4252,4.36537 -0.85815,3.17142 -0.85815,13.28266 l 0,12.238 z"
           inkscape:connector-curvature="0" />
        <path
           id="path3375"
           style="font-size:76.41262817px;fill:#000000"
           d="m 436.19534,1007.3575 10.52166,-1.6044 q 0.6716,3.0595 2.72369,4.6639 2.0521,1.567 5.74587,1.567 4.06689,0 6.11898,-1.4924 1.38051,-1.0447 1.38051,-2.7983 0,-1.194 -0.74622,-1.9775 -0.78353,-0.7462 -3.50722,-1.3805 -12.68569,-2.7983 -16.08098,-5.11159 -4.70117,-3.20873 -4.70117,-8.9173 0,-5.14889 4.06689,-8.65611 4.06688,-3.50722 12.61106,-3.50722 8.13377,0 12.08872,2.64907 3.95495,2.64907 5.44739,7.83528 l -9.88738,1.82823 q -0.63428,-2.31327 -2.42521,-3.54453 -1.75361,-1.23126 -5.03696,-1.23126 -4.14151,0 -5.93243,1.15664 -1.19394,0.82083 -1.19394,2.12671 0,1.11933 1.0447,1.90286 1.41781,1.0447 9.77544,2.94755 8.39495,1.90286 11.71561,4.66386 3.28336,2.79831 3.28336,7.79801 0,5.4473 -4.55193,9.365 -4.55192,3.9176 -13.46922,3.9176 -8.09645,0 -12.83493,-3.2833 -4.70117,-3.2834 -6.15629,-8.9173 z"
           inkscape:connector-curvature="0" />
        <path
           id="path3377"
           style="font-size:76.41262817px;fill:#000000"
           d="m 538.68825,998.55211 10.70821,3.39529 q -2.46252,8.9546 -8.20839,13.32 -5.70856,4.328 -14.51392,4.328 -10.89477,0 -17.90921,-7.4248 -7.01444,-7.4622 -7.01444,-20.37175 0,-13.65577 7.05175,-21.19257 7.05175,-7.5741 18.5435,-7.5741 10.03662,0 16.30484,5.93243 3.73108,3.50722 5.59663,10.07393 l -10.93208,2.61176 q -0.97009,-4.25344 -4.06689,-6.71596 -3.05949,-2.46251 -7.46217,-2.46251 -6.08167,0 -9.88737,4.36537 -3.7684,4.36537 -3.7684,14.14081 0,10.37239 3.73109,14.77509 3.73108,4.4027 9.70082,4.4027 4.40268,0 7.5741,-2.7983 3.17142,-2.7983 4.55193,-8.80539 z"
           inkscape:connector-curvature="0" />
        <path
           id="path3379"
           style="font-size:76.41262817px;fill:#000000"
           d="m 568.87273,1018.6627 -10.48435,0 0,-39.62416 9.73813,0 0,5.63394 q 2.49983,-3.99227 4.4773,-5.26083 2.01479,-1.26857 4.55192,-1.26857 3.58185,0 6.90251,1.97747 l -3.24604,9.14116 q -2.64907,-1.7163 -4.92503,-1.7163 -2.20134,0 -3.73109,1.23126 -1.52974,1.19395 -2.42521,4.36537 -0.85814,3.17142 -0.85814,13.28266 l 0,12.238 z"
           inkscape:connector-curvature="0" />
        <path
           id="path3381"
           style="font-size:76.41262817px;fill:#000000"
           d="m 586.11033,998.29094 q 0,-5.22352 2.57445,-10.11124 2.57445,-4.88773 7.27562,-7.46217 4.73848,-2.57445 10.55897,-2.57445 8.99191,0 14.73779,5.8578 5.74587,5.82049 5.74587,14.73779 0,8.99193 -5.8205,14.92433 -5.78318,5.8951 -14.58854,5.8951 -5.44738,0 -10.40973,-2.4625 -4.92503,-2.4625 -7.49948,-7.201 -2.57445,-4.7758 -2.57445,-11.60366 z m 10.74553,0.55966 q 0,5.8951 2.79831,9.0292 2.79832,3.1341 6.90251,3.1341 4.10419,0 6.8652,-3.1341 2.79831,-3.1341 2.79831,-9.10382 0,-5.82049 -2.79831,-8.95461 -2.76101,-3.13411 -6.8652,-3.13411 -4.10419,0 -6.90251,3.13411 -2.79831,3.13412 -2.79831,9.02923 z"
           inkscape:connector-curvature="0" />
        <path
           id="path3383"
           style="font-size:76.41262817px;fill:#000000"
           d="m 631.55496,1007.3575 10.52166,-1.6044 q 0.6716,3.0595 2.72369,4.6639 2.0521,1.567 5.74587,1.567 4.06689,0 6.11898,-1.4924 1.38051,-1.0447 1.38051,-2.7983 0,-1.194 -0.74622,-1.9775 -0.78353,-0.7462 -3.50722,-1.3805 -12.68569,-2.7983 -16.08098,-5.11159 -4.70117,-3.20873 -4.70117,-8.9173 0,-5.14889 4.06689,-8.65611 4.06688,-3.50722 12.61106,-3.50722 8.13377,0 12.08872,2.64907 3.95495,2.64907 5.44739,7.83528 l -9.88738,1.82823 q -0.63429,-2.31327 -2.42521,-3.54453 -1.75361,-1.23126 -5.03696,-1.23126 -4.14151,0 -5.93243,1.15664 -1.19394,0.82083 -1.19394,2.12671 0,1.11933 1.0447,1.90286 1.41781,1.0447 9.77544,2.94755 8.39494,1.90286 11.71561,4.66386 3.28336,2.79831 3.28336,7.79801 0,5.4473 -4.55193,9.365 -4.55192,3.9176 -13.46922,3.9176 -8.09645,0 -12.83493,-3.2833 -4.70117,-3.2834 -6.15629,-8.9173 z"
           inkscape:connector-curvature="0" />
        <path
           id="path3385"
           style="font-size:76.41262817px;fill:#000000"
           d="m 674.08932,1007.3575 10.52166,-1.6044 q 0.6716,3.0595 2.72369,4.6639 2.0521,1.567 5.74588,1.567 4.06688,0 6.11898,-1.4924 1.3805,-1.0447 1.3805,-2.7983 0,-1.194 -0.74622,-1.9775 -0.78353,-0.7462 -3.50722,-1.3805 -12.68569,-2.7983 -16.08098,-5.11159 -4.70116,-3.20873 -4.70116,-8.9173 0,-5.14889 4.06688,-8.65611 4.06688,-3.50722 12.61107,-3.50722 8.13376,0 12.08871,2.64907 3.95495,2.64907 5.44739,7.83528 l -9.88738,1.82823 q -0.63428,-2.31327 -2.4252,-3.54453 -1.75361,-1.23126 -5.03697,-1.23126 -4.1415,0 -5.93242,1.15664 -1.19395,0.82083 -1.19395,2.12671 0,1.11933 1.0447,1.90286 1.41781,1.0447 9.77545,2.94755 8.39494,1.90286 11.7156,4.66386 3.28336,2.79831 3.28336,7.79801 0,5.4473 -4.55193,9.365 -4.55192,3.9176 -13.46921,3.9176 -8.09646,0 -12.83494,-3.2833 -4.70116,-3.2834 -6.15629,-8.9173 z"
           inkscape:connector-curvature="0" />
        <path
           id="path3387"
           style="font-size:76.41262817px;fill:#000000"
           d="m 720.31749,973.66577 0,-9.70082 10.48435,0 0,9.70082 -10.48435,0 z m 0,44.99693 0,-39.62416 10.48435,0 0,39.62416 -10.48435,0 z"
           inkscape:connector-curvature="0" />
        <path
           id="path3389"
           style="font-size:76.41262817px;fill:#000000"
           d="m 777.55234,1018.6627 -10.48435,0 0,-20.22252 q 0,-6.41747 -0.6716,-8.28301 -0.67159,-1.90285 -2.20134,-2.94756 -1.49243,-1.0447 -3.61915,-1.0447 -2.72369,0 -4.88772,1.49243 -2.16403,1.49244 -2.98487,3.95495 -0.78353,2.46252 -0.78353,9.10381 l 0,17.9466 -10.48435,0 0,-39.62416 9.73814,0 0,5.82049 q 5.18621,-6.71595 13.0588,-6.71595 3.4699,0 6.34284,1.26857 2.87294,1.23125 4.32806,3.17142 1.49243,1.94016 2.0521,4.40268 0.59697,2.46252 0.59697,7.05175 l 0,24.6252 z"
           inkscape:connector-curvature="0" />
        <path
           id="path3391"
           style="font-size:76.41262817px;fill:#000000"
           d="m 787.25314,1021.2744 11.97678,1.4551 q 0.29849,2.0895 1.3805,2.873 1.49244,1.1193 4.70117,1.1193 4.1042,0 6.15629,-1.2313 1.3805,-0.8208 2.08941,-2.649 0.48504,-1.3059 0.48504,-4.8131 l 0,-5.7832 q -4.70117,6.4175 -11.86485,6.4175 -7.98452,0 -12.64838,-6.7533 -3.65646,-5.3355 -3.65646,-13.28266 0,-9.962 4.77579,-15.22283 4.8131,-5.26083 11.93947,-5.26083 7.35024,0 12.12603,6.45477 l 0,-5.55931 9.81275,0 0,35.55726 q 0,7.0144 -1.15664,10.4843 -1.15663,3.4699 -3.24604,5.4474 -2.08941,1.9775 -5.59663,3.0968 -3.46991,1.1193 -8.80536,1.1193 -10.07393,0 -14.29006,-3.4699 -4.21612,-3.4326 -4.21612,-8.7307 0,-0.5224 0.0373,-1.2686 z m 9.36502,-23.24464 q 0,6.30554 2.42521,9.25314 2.46251,2.9102 6.04436,2.9102 3.84301,0 6.49209,-2.9849 2.64907,-3.0221 2.64907,-8.91726 0,-6.15629 -2.53714,-9.14116 -2.53714,-2.98487 -6.41747,-2.98487 -3.7684,0 -6.23091,2.94756 -2.42521,2.91024 -2.42521,8.91729 z"
           inkscape:connector-curvature="0" />
      </g>
    </g>
  </g>
  <metadata
     id="metadata72">
    <rdf:RDF>
      <cc:Work>
        <dc:format>image/svg+xml</dc:format>
        <dc:type
           rdf:resource="http://purl.org/dc/dcmitype/StillImage" />
        <cc:license
           rdf:resource="http://creativecommons.org/publicdomain/zero/1.0/" />
        <dc:publisher>
          <cc:Agent
             rdf:about="http://openclipart.org/">
            <dc:title>Openclipart</dc:title>
          </cc:Agent>
        </dc:publisher>
        <dc:title>Caution - otters crossing</dc:title>
        <dc:date />
        <dc:description>Vector version of a roadsign used in the UK. Otter vectorized from Pixabay PD image by katharinakanns:
https://pixabay.com/photo-1665106/</dc:description>
        <dc:source />
        <dc:creator>
          <cc:Agent>
            <dc:title>Juhele</dc:title>
          </cc:Agent>
        </dc:creator>
        <dc:subject>
          <rdf:Bag>
            <rdf:li>sign</rdf:li>
            <rdf:li>traffic</rdf:li>
            <rdf:li>warning</rdf:li>
            <rdf:li>caution</rdf:li>
            <rdf:li>crossing</rdf:li>
            <rdf:li>otter</rdf:li>
            <rdf:li>animal</rdf:li>
            <rdf:li>remix+30247</rdf:li>
          </rdf:Bag>
        </dc:subject>
      </cc:Work>
      <cc:License
         rdf:about="http://creativecommons.org/publicdomain/zero/1.0/">
        <cc:permits
           rdf:resource="http://creativecommons.org/ns#Reproduction" />
        <cc:permits
           rdf:resource="http://creativecommons.org/ns#Distribution" />
        <cc:permits
           rdf:resource="http://creativecommons.org/ns#DerivativeWorks" />
      </cc:License>
    </rdf:RDF>
  </metadata>
</svg>
